<svg width="16" height="17" viewBox="0 0 16 17" fill="none" xmlns="http://www.w3.org/2000/svg">
<path fill-rule="evenodd" clip-rule="evenodd" d="M12.243 3.75699C11.4419 2.95642 10.4307 2.39891 9.32609 2.14891C8.22151 1.89891 7.06872 1.96664 6.00101 2.34426C4.9333 2.72188 3.99427 3.39398 3.29248 4.28285C2.59068 5.17171 2.15478 6.24105 2.03518 7.36724C1.91557 8.49343 2.11714 9.63047 2.61658 10.6469C3.11603 11.6634 3.89295 12.5177 4.85752 13.1112C5.8221 13.7046 6.93494 14.013 8.0674 14.0005C9.19985 13.9881 10.3057 13.6555 11.257 13.041C11.3671 12.9655 11.4913 12.9128 11.6221 12.886C11.7529 12.8593 11.8877 12.859 12.0187 12.8852C12.1496 12.9114 12.274 12.9635 12.3844 13.0386C12.4949 13.1136 12.5892 13.21 12.6618 13.3221C12.7344 13.4341 12.7838 13.5596 12.8071 13.6911C12.8304 13.8225 12.8272 13.9574 12.7976 14.0876C12.768 14.2178 12.7126 14.3407 12.6347 14.4492C12.5568 14.5576 12.4579 14.6494 12.344 14.719C10.8507 15.6846 9.07826 16.1252 7.30666 15.971C5.53506 15.8169 3.86531 15.0769 2.5612 13.8679C1.25709 12.659 0.392961 11.05 0.105334 9.29508C-0.182293 7.54021 0.122977 5.73952 0.972919 4.1775C1.82286 2.61548 3.16902 1.38117 4.79872 0.669568C6.42843 -0.0420306 8.24878 -0.190351 9.97218 0.248038C11.6956 0.686428 13.2238 1.68654 14.3154 3.09036C15.407 4.49419 15.9997 6.22171 16 8C16.0002 8.55722 15.8452 9.10348 15.5523 9.57755C15.2595 10.0516 14.8404 10.4348 14.3421 10.6841C13.8437 10.9333 13.2858 11.0389 12.7308 10.9889C12.1759 10.9389 11.6458 10.7353 11.2 10.401C10.6301 11.1608 9.80852 11.6931 8.88215 11.9025C7.95577 12.112 6.9851 11.985 6.14379 11.5442C5.30249 11.1035 4.64546 10.3778 4.29026 9.49694C3.93506 8.6161 3.90488 7.63762 4.20511 6.73656C4.50533 5.8355 5.11638 5.07067 5.92892 4.57891C6.74146 4.08716 7.70246 3.90057 8.63999 4.05253C9.57751 4.20448 10.4304 4.68508 11.046 5.40831C11.6616 6.13155 11.9998 7.05024 12 8C12 8.26521 12.1054 8.51957 12.2929 8.7071C12.4804 8.89464 12.7348 9 13 9C13.2652 9 13.5196 8.89464 13.7071 8.7071C13.8946 8.51957 14 8.26521 14 8C14 6.463 13.414 4.93 12.243 3.75699ZM10 8C10 7.46956 9.78928 6.96086 9.41421 6.58578C9.03914 6.21071 8.53043 6 8 6C7.46956 6 6.96086 6.21071 6.58578 6.58578C6.21071 6.96086 6 7.46956 6 8C6 8.53043 6.21071 9.03914 6.58578 9.41421C6.96086 9.78928 7.46956 10 8 10C8.53043 10 9.03914 9.78928 9.41421 9.41421C9.78928 9.03914 10 8.53043 10 8Z" fill="black"/>
</svg>
