<svg width="10" height="8" viewBox="0 0 10 8" fill="none" xmlns="http://www.w3.org/2000/svg">
<path fill-rule="evenodd" clip-rule="evenodd" d="M5.20509 0.705073C5.33636 0.573843 5.51437 0.500122 5.69999 0.500122C5.8856 0.500122 6.06362 0.573843 6.19489 0.705073L8.99489 3.50507C9.12612 3.63634 9.19984 3.81436 9.19984 3.99997C9.19984 4.18559 9.12612 4.3636 8.99489 4.49487L6.19489 7.29487C6.06287 7.42238 5.88605 7.49294 5.70251 7.49134C5.51897 7.48975 5.3434 7.41613 5.21361 7.28635C5.08383 7.15656 5.01021 6.98099 5.00862 6.79745C5.00702 6.61392 5.07758 6.43709 5.20509 6.30507L6.81019 4.69997H1.49999C1.31434 4.69997 1.13629 4.62622 1.00501 4.49495C0.873738 4.36367 0.799988 4.18562 0.799988 3.99997C0.799988 3.81432 0.873738 3.63627 1.00501 3.505C1.13629 3.37372 1.31434 3.29997 1.49999 3.29997H6.81019L5.20509 1.69487C5.07386 1.5636 5.00014 1.38559 5.00014 1.19997C5.00014 1.01436 5.07386 0.836342 5.20509 0.705073Z" fill="#6A87A3"/>
</svg>
